# xmcd
#
# Track frame offsets: 
#        150
#        11693
#        23197
#        37748
#        49102
#        61950
#        72578
#        86101
#        100947
#        115051
#        126710
#        136270
#
# Disc length: 1981 seconds
#
# Revision: 0
# Processed by: cddbd v1.5.1PL2 Copyright (c) Steve Scherf et al.
# Submitted via: ExactAudioCopy v0.95b4
#
DISCID=a607bb0c
DTITLE=the smokehouse band - Bluegrass- 20 Years of Feedback
DYEAR=1900
DGENRE=Bluegrass
TTITLE0=Walking After Midnight Over You
TTITLE1=Thanks A Lot
TTITLE2=Mama's Wings
TTITLE3=Golden Slippers
TTITLE4=Bloodshot Eyes
TTITLE5=Bluegrass Band
TTITLE6=Standing onthe Rock
TTITLE7=It's All Coming Back
TTITLE8=Me And The Boys
TTITLE9=Call Me The Breeze
TTITLE10=Old MAn From The Mountain
TTITLE11=Chicken Train
EXTD=
EXTT0=
EXTT1=
EXTT2=
EXTT3=
EXTT4=
EXTT5=
EXTT6=
EXTT7=
EXTT8=
EXTT9=
EXTT10=
EXTT11=
PLAYORDER=
